<svg width="28" height="28" viewBox="0 0 28 28" fill="none" xmlns="http://www.w3.org/2000/svg">
<path d="M14.0002 24.5L13.8834 24.3249C13.073 23.1093 12.6678 22.5015 12.1324 22.0615C11.6585 21.6719 11.1124 21.3796 10.5254 21.2014C9.86229 21 9.13179 21 7.67079 21H6.06683C4.76004 21 4.10665 21 3.60752 20.7457C3.16847 20.522 2.81152 20.165 2.58781 19.726C2.3335 19.2268 2.3335 18.5735 2.3335 17.2667V7.23333C2.3335 5.92654 2.3335 5.27315 2.58781 4.77402C2.81152 4.33498 3.16847 3.97802 3.60752 3.75432C4.10665 3.5 4.76004 3.5 6.06683 3.5H6.5335C9.14707 3.5 10.4539 3.5 11.4521 4.00864C12.3302 4.45605 13.0441 5.16995 13.4915 6.04804C14.0002 7.0463 14.0002 8.35309 14.0002 10.9667M14.0002 24.5V10.9667M14.0002 24.5L14.1169 24.3249C14.9273 23.1093 15.3325 22.5015 15.8679 22.0615C16.3418 21.6719 16.8879 21.3796 17.475 21.2014C18.138 21 18.8685 21 20.3295 21H21.9335C23.2403 21 23.8937 21 24.3928 20.7457C24.8319 20.522 25.1888 20.165 25.4125 19.726C25.6668 19.2268 25.6668 18.5735 25.6668 17.2667V7.23333C25.6668 5.92654 25.6668 5.27315 25.4125 4.77402C25.1888 4.33498 24.8319 3.97802 24.3928 3.75432C23.8937 3.5 23.2403 3.5 21.9335 3.5H21.4668C18.8533 3.5 17.5465 3.5 16.5482 4.00864C15.6701 4.45605 14.9562 5.16995 14.5088 6.04804C14.0002 7.0463 14.0002 8.35309 14.0002 10.9667" stroke="#001524" stroke-width="2" stroke-linecap="round" stroke-linejoin="round"/>
</svg>
