<svg width="28" height="28" viewBox="0 0 28 28" fill="none" xmlns="http://www.w3.org/2000/svg">
<path d="M12.8335 4.66677H7.9335C5.97331 4.66677 4.99322 4.66677 4.24453 5.04825C3.58596 5.3838 3.05053 5.91924 2.71497 6.5778C2.3335 7.32649 2.3335 8.30659 2.3335 10.2668V20.0668C2.3335 22.027 2.3335 23.007 2.71497 23.7557C3.05053 24.4143 3.58596 24.9497 4.24453 25.2853C4.99322 25.6668 5.97331 25.6668 7.9335 25.6668H17.7335C19.6937 25.6668 20.6738 25.6668 21.4225 25.2853C22.081 24.9497 22.6165 24.4143 22.952 23.7557C23.3335 23.007 23.3335 22.027 23.3335 20.0668V15.1668M9.33346 18.6668H11.2871C11.8578 18.6668 12.1432 18.6668 12.4117 18.6023C12.6498 18.5451 12.8774 18.4509 13.0862 18.3229C13.3216 18.1786 13.5234 17.9769 13.927 17.5733L25.0835 6.41677C26.05 5.45027 26.05 3.88327 25.0835 2.91677C24.117 1.95027 22.55 1.95027 21.5835 2.91677L10.4269 14.0733C10.0234 14.4769 9.8216 14.6786 9.67731 14.9141C9.54937 15.1229 9.45509 15.3505 9.39793 15.5886C9.33346 15.8571 9.33346 16.1425 9.33346 16.7132V18.6668Z" stroke="#001524" stroke-width="2" stroke-linecap="round" stroke-linejoin="round"/>
</svg>
