<svg width="28" height="28" viewBox="0 0 28 28" fill="none" xmlns="http://www.w3.org/2000/svg">
<path d="M16.3332 2.64771V7.46667C16.3332 8.12006 16.3332 8.44676 16.4603 8.69632C16.5722 8.91585 16.7507 9.09432 16.9702 9.20618C17.2197 9.33333 17.5464 9.33333 18.1998 9.33333H23.0188M16.3332 19.8333H9.33317M18.6665 15.1666H9.33317M23.3332 11.6528V20.0666C23.3332 22.0268 23.3332 23.0069 22.9517 23.7556C22.6161 24.4141 22.0807 24.9496 21.4221 25.2851C20.6734 25.6666 19.6934 25.6666 17.7332 25.6666H10.2665C8.30632 25.6666 7.32623 25.6666 6.57754 25.2851C5.91897 24.9496 5.38354 24.4141 5.04798 23.7556C4.6665 23.0069 4.6665 22.0268 4.6665 20.0666V7.93325C4.6665 5.97307 4.6665 4.99298 5.04798 4.24429C5.38354 3.58572 5.91897 3.05029 6.57754 2.71473C7.32623 2.33325 8.30632 2.33325 10.2665 2.33325H14.0136C14.8696 2.33325 15.2977 2.33325 15.7005 2.42996C16.0576 2.5157 16.399 2.65711 16.7122 2.84901C17.0654 3.06546 17.368 3.36812 17.9734 3.97345L21.693 7.69305C22.2983 8.29838 22.601 8.60105 22.8174 8.95425C23.0093 9.26741 23.1507 9.60881 23.2365 9.96594C23.3332 10.3687 23.3332 10.7968 23.3332 11.6528Z" stroke="#001524" stroke-width="2" stroke-linecap="round" stroke-linejoin="round"/>
</svg>
