<svg width="28" height="28" viewBox="0 0 28 28" fill="none" xmlns="http://www.w3.org/2000/svg">
<path d="M19.8335 16.9166V13.4101C19.8335 13.2007 19.8335 13.096 19.8016 13.0036C19.7734 12.9218 19.7274 12.8474 19.6669 12.7856C19.5985 12.7157 19.5048 12.6689 19.3176 12.5753L14.0002 9.91658M4.66683 11.0832V19.0243C4.66683 19.4582 4.66683 19.6751 4.73452 19.8651C4.79436 20.033 4.89188 20.185 5.0196 20.3094C5.16408 20.45 5.36131 20.5404 5.75574 20.7212L13.2224 24.1434C13.5085 24.2746 13.6516 24.3401 13.8006 24.366C13.9327 24.3889 14.0677 24.3889 14.1997 24.366C14.3488 24.3401 14.4918 24.2746 14.7779 24.1434L22.2446 20.7212C22.639 20.5404 22.8362 20.45 22.9807 20.3094C23.1084 20.185 23.206 20.033 23.2658 19.8651C23.3335 19.6751 23.3335 19.4582 23.3335 19.0243V11.0832M2.3335 9.91658L13.5828 4.29195C13.7358 4.21542 13.8123 4.17716 13.8926 4.1621C13.9637 4.14877 14.0366 4.14877 14.1077 4.1621C14.188 4.17716 14.2645 4.21542 14.4176 4.29195L25.6668 9.91658L14.4176 15.5412C14.2645 15.6177 14.188 15.656 14.1077 15.6711C14.0366 15.6844 13.9637 15.6844 13.8926 15.6711C13.8123 15.656 13.7358 15.6177 13.5828 15.5412L2.3335 9.91658Z" stroke="#001524" stroke-width="2" stroke-linecap="round" stroke-linejoin="round"/>
</svg>
