<svg width="28" height="28" viewBox="0 0 28 28" fill="none" xmlns="http://www.w3.org/2000/svg">
<path d="M13.9998 13.9999L9.0148 9.84572C8.27414 9.22851 7.90382 8.9199 7.63758 8.54159C7.40169 8.2064 7.22651 7.83238 7.12002 7.43658C6.99984 6.98987 6.99984 6.50781 6.99984 5.54369V2.33325M13.9998 13.9999L18.9849 9.84572C19.7255 9.22851 20.0959 8.9199 20.3621 8.54159C20.598 8.2064 20.7732 7.83238 20.8797 7.43658C20.9998 6.98987 20.9998 6.50781 20.9998 5.54369V2.33325M13.9998 13.9999L9.0148 18.1541C8.27415 18.7713 7.90382 19.0799 7.63758 19.4582C7.40169 19.7934 7.22651 20.1675 7.12002 20.5633C6.99984 21.01 6.99984 21.492 6.99984 22.4562V25.6666M13.9998 13.9999L18.9849 18.1541C19.7255 18.7713 20.0959 19.0799 20.3621 19.4582C20.598 19.7934 20.7732 20.1675 20.8797 20.5633C20.9998 21.01 20.9998 21.492 20.9998 22.4562V25.6666M4.6665 2.33325H23.3332M4.6665 25.6666H23.3332" stroke="#001524" stroke-width="2" stroke-linecap="round" stroke-linejoin="round"/>
</svg>
