<svg width="20" height="20" viewBox="0 0 20 20" fill="none" xmlns="http://www.w3.org/2000/svg">
<path d="M8.3335 13.3334H11.6668M7.3335 18.3334H12.6668C14.067 18.3334 14.767 18.3334 15.3018 18.0609C15.7722 17.8212 16.1547 17.4388 16.3943 16.9684C16.6668 16.4336 16.6668 15.7335 16.6668 14.3334V5.66675C16.6668 4.26662 16.6668 3.56655 16.3943 3.03177C16.1547 2.56137 15.7722 2.17892 15.3018 1.93923C14.767 1.66675 14.067 1.66675 12.6668 1.66675H7.3335C5.93336 1.66675 5.2333 1.66675 4.69852 1.93923C4.22811 2.17892 3.84566 2.56137 3.60598 3.03177C3.3335 3.56655 3.3335 4.26662 3.3335 5.66675V14.3334C3.3335 15.7335 3.3335 16.4336 3.60598 16.9684C3.84566 17.4388 4.22811 17.8212 4.69852 18.0609C5.2333 18.3334 5.93336 18.3334 7.3335 18.3334ZM12.5002 7.50008C12.5002 8.88079 11.3809 10.0001 10.0002 10.0001C8.61945 10.0001 7.50016 8.88079 7.50016 7.50008C7.50016 6.11937 8.61945 5.00008 10.0002 5.00008C11.3809 5.00008 12.5002 6.11937 12.5002 7.50008Z" stroke="#FF8D0A" stroke-width="1.5" stroke-linecap="round" stroke-linejoin="round"/>
</svg>
