<svg width="20" height="20" viewBox="0 0 20 20" fill="none" xmlns="http://www.w3.org/2000/svg">
<g clip-path="url(#clip0_4735_5436)">
<path d="M13.3331 6.66675V4.16675L15.8331 1.66675L16.6665 3.33341L18.3331 4.16675L15.8331 6.66675H13.3331ZM13.3331 6.66675L9.99981 10M18.3332 10.0001C18.3332 14.6025 14.6022 18.3334 9.99984 18.3334C5.39746 18.3334 1.6665 14.6025 1.6665 10.0001C1.6665 5.39771 5.39746 1.66675 9.99984 1.66675M14.1665 10.0001C14.1665 12.3013 12.301 14.1667 9.99984 14.1667C7.69865 14.1667 5.83317 12.3013 5.83317 10.0001C5.83317 7.6989 7.69865 5.83341 9.99984 5.83341" stroke="#FF8D0A" stroke-width="1.5" stroke-linecap="round" stroke-linejoin="round"/>
</g>
<defs>
<clipPath id="clip0_4735_5436">
<rect width="20" height="20" fill="white"/>
</clipPath>
</defs>
</svg>
